# xmcd
#
# Track frame offsets: 
#        150
#        22733
#        37597
#        56047
#        74251
#        97775
#        114463
#        137168
#        153285
#        160950
#        175335
#        189768
#
# Disc length: 2826 seconds
#
# Revision: 0
# Processed by: cddbd v1.5.2PL0 Copyright (c) Steve Scherf et al.
# Submitted via: ExactAudioCopy v1.0b3
#
DISCID=890b080c
DTITLE=Thanatos - Undead. Unholy. Divine.
DYEAR=2004
DGENRE=Thrash Metal
TTITLE0=Lambs To The Slaughter
TTITLE1=Undead. Unholy. Divine.
TTITLE2=Eraser
TTITLE3=Beyond Terror
TTITLE4=The Sign Of Sadako
TTITLE5=Servants Of Hatred
TTITLE6=Devour The Living
TTITLE7=Godforsaken
TTITLE8=The Suffering...
TTITLE9=The Sweet Suffering
TTITLE10=The Burning Of Sodom
TTITLE11=And Jesus Wept
EXTD=
EXTT0=
EXTT1=
EXTT2=
EXTT3=
EXTT4=
EXTT5=
EXTT6=
EXTT7=
EXTT8=
EXTT9=
EXTT10=
EXTT11=
PLAYORDER=
